<svg width="40" height="40" viewBox="0 0 40 40" fill="none" xmlns="http://www.w3.org/2000/svg">
<path d="M33.9466 27.3993C33.6098 24.7747 32.2182 22.3909 30.1607 20.3607L33.367 16.6014L34.0273 16.7846L34.0996 16.8007C34.2624 16.8281 34.4259 16.8421 34.588 16.8421C35.2828 16.8421 35.9593 16.5972 36.4975 16.1411C37.1621 15.5782 37.5438 14.7551 37.5438 13.8842V12.1923C37.5438 11.3214 37.1628 10.4982 36.4975 9.93544C35.8329 9.37263 34.96 9.13123 34.0996 9.27509L26.9733 11.2498C26.1726 11.4723 25.614 12.207 25.614 13.0379C25.614 13.8688 26.1733 14.6042 26.9733 14.826L28.5592 15.2667L26.8105 17.7151C23.0414 15.3046 18.268 13.7544 13.6652 13.414C14.275 8.64421 15.1964 6.49825 16.0119 5.56632C16.1684 5.59298 16.327 5.61404 16.4912 5.61404H23.5087C24.7796 5.61404 25.8442 4.7593 26.188 3.5986C27.0687 3.85053 27.7193 4.65333 27.7193 5.61404C27.7193 6.0014 28.0336 6.31579 28.421 6.31579C28.8084 6.31579 29.1228 6.0014 29.1228 5.61404C29.1228 3.89263 27.8736 2.46316 26.2357 2.16842C26.2329 2.15579 26.2273 2.14386 26.2238 2.13053C28.6112 2.30877 30.5263 3.50877 30.5263 4.91228C30.5263 5.29965 30.8407 5.61404 31.228 5.61404C31.6154 5.61404 31.9298 5.29965 31.9298 4.91228C31.9298 2.55158 29.1557 0.701754 25.614 0.701754C25.5375 0.701754 25.4673 0.722807 25.3986 0.745263C24.8989 0.287018 24.2386 0 23.5087 0H16.4912C15.3045 0 14.2933 0.743158 13.8828 1.78596C10.9789 3.94737 9.45188 9.33404 8.96416 19.1298C6.83855 19.5221 4.93329 20.5481 3.4596 22.0126C3.45188 22.0196 3.44136 22.0225 3.43294 22.0302C3.42451 22.0379 3.42241 22.0484 3.41539 22.0568C1.52346 23.9614 0.35083 26.5825 0.35083 29.4737C0.35083 32.3649 1.52346 34.986 3.4168 36.8905C3.42381 36.8982 3.42662 36.9088 3.43434 36.9172C3.44206 36.9256 3.45258 36.9277 3.46101 36.9347C5.36487 38.8274 7.98592 40 10.8771 40C13.7684 40 16.3894 38.8274 18.294 36.934C18.3017 36.927 18.3122 36.9242 18.3207 36.9165C18.3291 36.9088 18.3312 36.8982 18.3382 36.8898C20.2308 34.986 21.4035 32.3649 21.4035 29.4737C21.4035 26.5825 20.2308 23.9614 18.3375 22.0568C18.3305 22.0491 18.3277 22.0386 18.32 22.0302C18.3122 22.0218 18.3017 22.0196 18.2933 22.0126C16.9087 20.6365 15.1431 19.6477 13.1726 19.207C13.2021 18.6526 13.2329 18.1158 13.268 17.6028C21.0547 18.1425 29.4947 22.7502 29.8084 28.4456C28.1263 29.5818 27.0175 31.506 27.0175 33.6842C27.0175 37.1663 29.8512 40 33.3333 40C36.8154 40 39.6491 37.1663 39.6491 33.6842C39.6491 30.4091 37.1424 27.7095 33.9466 27.3993ZM27.0175 13.0379C27.0175 12.8351 27.1536 12.6561 27.3487 12.6021L34.3642 10.654C34.8056 10.5909 35.2505 10.7179 35.5908 11.0063C35.9403 11.3025 36.1403 11.7347 36.1403 12.1923V13.8842C36.1403 14.3418 35.9396 14.774 35.5908 15.0702C35.2505 15.3586 34.8042 15.4835 34.3642 15.4225L27.3487 13.4737C27.1536 13.4197 27.0175 13.2407 27.0175 13.0379ZM23.5087 1.40351C24.2828 1.40351 24.9122 2.03298 24.9122 2.80702C24.9122 3.58105 24.2828 4.21053 23.5087 4.21053H16.4912C16.3635 4.21053 16.2421 4.18807 16.1242 4.15579L16.0315 4.12281C15.6175 3.97614 15.3066 3.65123 15.1684 3.25684C15.1621 3.23789 15.1564 3.21895 15.1508 3.2C15.1122 3.07368 15.0877 2.94246 15.0877 2.80702C15.0877 2.73895 15.0982 2.67368 15.108 2.60842C15.1193 2.54667 15.1347 2.48211 15.1564 2.40982L15.2042 2.25053C15.4196 1.75298 15.915 1.40351 16.4912 1.40351H23.5087ZM17.7978 35.4014L15.3431 32.9467C15.0687 32.6723 14.6252 32.6723 14.3508 32.9467C14.0764 33.2211 14.0764 33.6646 14.3508 33.9389L16.8056 36.3937C15.2091 37.7635 13.1403 38.5965 10.8771 38.5965C8.61399 38.5965 6.54522 37.7635 4.94943 36.3944L7.40416 33.9396C7.67855 33.6653 7.67855 33.2218 7.40416 32.9474C7.12978 32.673 6.68627 32.673 6.41188 32.9474L3.95715 35.4021C2.58732 33.8056 1.75434 31.7368 1.75434 29.4737C1.75434 27.2105 2.58732 25.1418 3.95644 23.546L6.41118 26.0007C6.54802 26.1375 6.72767 26.2063 6.90732 26.2063C7.08697 26.2063 7.26662 26.1375 7.40346 26.0007C7.67785 25.7263 7.67785 25.2828 7.40346 25.0084L4.94872 22.5537C6.26522 21.4246 7.90451 20.6667 9.70872 20.4344L9.72346 20.4323C9.8989 20.4098 10.0547 20.3979 10.2126 20.3846C10.3943 20.3712 10.5761 20.3593 10.7607 20.3565C10.8133 20.3558 10.868 20.353 10.92 20.353C11.1775 20.3544 11.4315 20.3691 11.6835 20.3916C11.887 20.4126 12.0982 20.4407 12.327 20.4772L12.7424 20.5439C14.2729 20.8632 15.6596 21.5705 16.8049 22.553L14.3501 25.0077C14.0757 25.2821 14.0757 25.7256 14.3501 26C14.487 26.1368 14.6666 26.2056 14.8463 26.2056C15.0259 26.2056 15.2056 26.1368 15.3424 26L17.7971 23.5453C19.167 25.1418 20 27.2105 20 29.4737C20 31.7368 19.167 33.8056 17.7978 35.4014ZM10.3754 18.9621C10.7873 10.9986 11.9031 6.0786 13.8463 3.73965C13.8554 3.76491 13.8687 3.78807 13.8785 3.81333C13.9031 3.87649 13.9305 3.93754 13.9593 3.9986C13.9971 4.07789 14.04 4.15439 14.0849 4.22947C14.1529 4.34386 14.2287 4.45053 14.3115 4.55368C14.3536 4.60632 14.3943 4.66035 14.4407 4.70947C14.5073 4.78105 14.5796 4.84632 14.6533 4.91088C14.6708 4.92561 14.6856 4.94316 14.7031 4.95789C13.1263 7.10807 12.1656 11.7249 11.7761 18.9916C11.4631 18.9621 11.1656 18.9474 10.8771 18.9474C10.7136 18.9474 10.5473 18.9523 10.3754 18.9621ZM27.9775 18.4954L29.9986 15.666L31.8757 16.1874L29.1298 19.4063C28.9873 19.2849 28.8357 19.1761 28.6898 19.0582C28.5698 18.9621 28.4505 18.8653 28.327 18.7712C28.2084 18.6814 28.0961 18.5825 27.9775 18.4954ZM31.1586 27.7558C30.2961 21.494 21.5866 16.8049 13.4757 16.2077C13.5164 15.7298 13.56 15.2639 13.6077 14.8112C18.8638 15.1867 23.3691 16.9144 26.6729 19.2596C26.6793 19.2653 26.6863 19.2709 26.6926 19.2765C26.7375 19.3165 26.7824 19.3565 26.868 19.4239C27.2736 19.7116 27.6561 20.0133 28.0266 20.32C30.5473 22.4667 32.1494 24.9846 32.534 27.4197C32.4891 27.4253 32.4456 27.4379 32.4007 27.4442C32.2357 27.4688 32.0715 27.4975 31.9108 27.5347C31.847 27.5495 31.7838 27.567 31.72 27.5839C31.5649 27.6246 31.4126 27.6709 31.2624 27.7228C31.228 27.7361 31.1922 27.7432 31.1586 27.7558ZM33.3333 38.5965C30.6245 38.5965 28.421 36.393 28.421 33.6842C28.421 31.8309 29.4533 30.2154 30.9719 29.3789C31.1382 29.2877 31.3094 29.207 31.4849 29.1361C31.5186 29.1221 31.5536 29.1116 31.5873 29.0982C31.7333 29.0428 31.8814 28.9937 32.0322 28.9523C32.0764 28.9404 32.1207 28.9291 32.1649 28.9179C32.3136 28.8814 32.4645 28.8526 32.6168 28.8302C32.6575 28.8246 32.6968 28.8168 32.7375 28.8119C32.9284 28.7888 33.12 28.774 33.3129 28.7733H33.3494C36.0512 28.7825 38.2456 30.9811 38.2456 33.6842C38.2456 36.393 36.0421 38.5965 33.3333 38.5965Z" fill="#72CDEC"/>
</svg>
