<svg width="43" height="37" viewBox="0 0 43 37" fill="none" xmlns="http://www.w3.org/2000/svg">
<path d="M42.9289 11.0279C42.3013 4.63728 37.4113 0.000765011 31.2917 0.000765011C27.2147 0.000765011 23.4818 2.03024 21.3813 5.28292C19.2998 1.98817 15.7198 0 11.7081 0C5.58933 0 0.698599 4.63651 0.0717511 11.0271C0.0221326 11.3094 -0.181303 12.795 0.437274 15.2176C1.32875 18.7121 3.38792 21.8905 6.39067 24.4073L21.3713 36.9827L36.6092 24.4081C39.6119 21.8905 41.6711 18.7128 42.5626 15.2176C43.1812 12.7957 42.9777 11.3102 42.9289 11.0279ZM40.9525 14.8673C40.1387 18.0588 38.2524 20.9664 35.5027 23.2705L21.3813 34.9249L7.50212 23.2736C4.74747 20.9649 2.86197 18.058 2.0474 14.8665C1.4619 12.5739 1.70255 11.2788 1.70337 11.2704L1.71578 11.1931C2.25331 5.59426 6.45517 1.52995 11.7081 1.52995C15.5842 1.52995 18.9963 3.73308 20.6155 7.27874L21.3771 8.94868L22.1388 7.27874C23.7323 3.78739 27.3247 1.53071 31.2926 1.53071C36.5447 1.53071 40.7474 5.59503 41.2957 11.2666C41.2973 11.2788 41.538 12.5747 40.9525 14.8673Z" fill="#72CDEC"/>
</svg>
