<svg width="105" height="46" viewBox="0 0 105 46" fill="none" xmlns="http://www.w3.org/2000/svg">
<path d="M2.16309 0.606147C2.21963 0.828906 2.29012 1.33023 2.37495 2.10995C2.45978 2.88966 2.55873 3.8434 2.67184 4.97118C2.78496 6.09897 2.91219 7.36606 3.05356 8.77224C3.19492 10.1784 3.34336 11.6195 3.49889 13.0954C3.65442 14.5714 3.81699 16.0333 3.98664 17.4813C4.15629 18.9292 4.34007 20.2659 4.53801 21.4912C4.73595 22.7165 4.93389 23.7885 5.13183 24.7075C5.32977 25.6264 5.52771 26.2808 5.72565 26.6706C6.14978 27.0605 6.63044 27.1997 7.16769 27.0883C7.70493 26.9769 8.2563 26.7193 8.82179 26.3155C9.38728 25.9117 9.93865 25.4035 10.4759 24.7909C11.0131 24.1782 11.515 23.5656 11.9815 22.953C12.4481 22.3403 12.851 21.7764 13.1903 21.2613C13.5296 20.7461 13.77 20.3911 13.9113 20.1961C14.0244 20.3632 14.1234 20.5164 14.2082 20.6556C14.2648 20.7948 14.3072 20.9271 14.3355 21.0524C14.3638 21.1777 14.3496 21.2683 14.2931 21.3239C13.9538 22.0201 13.558 22.7232 13.1055 23.4333C12.6531 24.1434 12.1866 24.8256 11.7059 25.48C11.2252 26.1344 10.7446 26.7192 10.2639 27.2344C9.78325 27.7495 9.35912 28.1602 8.99153 28.4665C8.11498 29.0235 7.37276 29.3994 6.76485 29.5943C6.15695 29.7893 5.47126 29.6083 4.70783 29.0514C4.39681 28.6058 4.15646 28.1115 3.98681 27.5685C3.81716 27.0255 3.66871 26.3851 3.54147 25.6471C3.41424 24.9092 3.29408 24.0807 3.18096 23.1618C3.06785 22.2429 2.94061 21.1847 2.79925 19.9873C2.45995 16.6735 2.13477 13.896 1.82375 11.6542C1.51274 9.41241 1.22997 7.58163 0.975496 6.16146C0.721019 4.74128 0.508954 3.68304 0.339303 2.98695C0.169651 2.29085 0.0565363 1.81739 0 1.56677C0.169651 1.45537 0.318096 1.33704 0.445335 1.21173C0.572574 1.08642 0.713936 0.975017 0.869464 0.877568C1.02499 0.780119 1.20173 0.703555 1.39967 0.647875C1.59761 0.592196 1.85208 0.578287 2.16309 0.606147ZM14.1235 17.147C14.6608 17.1749 15.2545 17.2514 15.9049 17.3767C16.5552 17.502 17.1914 17.6691 17.8134 17.878C18.4355 18.0868 19.0081 18.3235 19.5312 18.588C20.0542 18.8526 20.4855 19.1519 20.8248 19.4861C21.1641 19.7924 21.362 20.2588 21.4185 20.8854C21.4751 21.5119 21.4327 22.2011 21.2913 22.953C21.1499 23.7049 20.9308 24.4776 20.6339 25.2712C20.337 26.0649 20.0048 26.7819 19.6372 27.4224C19.2696 28.0628 18.8738 28.5919 18.4496 29.0096C18.0255 29.4273 17.6297 29.6362 17.2621 29.6362C16.64 29.6362 16.1169 29.49 15.6928 29.1976C15.2687 28.9052 14.9294 28.5502 14.6749 28.1325C14.4204 27.7148 14.2296 27.2762 14.1023 26.8167C13.9751 26.3572 13.8973 25.9604 13.869 25.6263C13.7842 24.1504 13.7701 22.8417 13.8266 21.6999C13.8832 20.5581 13.9821 19.6114 14.1235 18.8595C14.0387 18.7203 13.9538 18.595 13.869 18.4836C13.7842 18.3722 13.6994 18.2678 13.6145 18.1703C13.5297 18.0729 13.4308 17.9824 13.3176 17.8988C13.4308 17.8432 13.5439 17.7596 13.657 17.6482C13.8832 17.4811 14.0387 17.3141 14.1235 17.147ZM15.6504 27.0883C15.7352 27.1997 15.8485 27.318 15.9899 27.4433C16.1313 27.5687 16.308 27.6661 16.5201 27.7357C16.7321 27.8054 16.9513 27.8123 17.1775 27.7567C17.4036 27.701 17.644 27.5478 17.8985 27.2972C18.5771 26.601 19.086 25.8839 19.4253 25.146C19.7646 24.4081 19.9838 23.7119 20.0827 23.0575C20.1817 22.4032 20.1676 21.8253 20.0403 21.3241C19.9131 20.8229 19.7081 20.4608 19.4253 20.2381C19.1992 20.0989 19.0083 19.9805 18.8528 19.8831C18.6972 19.7856 18.4993 19.6951 18.2589 19.6116C18.0186 19.528 17.7146 19.4375 17.347 19.3401C16.9794 19.2426 16.4988 19.1103 15.905 18.9433C15.6222 19.8343 15.4243 20.7254 15.3112 21.6165C15.1981 22.5076 15.1486 23.3221 15.1627 24.0601C15.1768 24.798 15.2333 25.4385 15.3323 25.9815C15.4312 26.5245 15.5373 26.8933 15.6504 27.0883ZM37.2809 7.70703C37.1961 8.20827 37.0972 8.73745 36.9841 9.29437C36.871 9.85129 36.7508 10.3804 36.6236 10.8816C36.4963 11.3829 36.3903 11.8145 36.3055 12.1765C36.2207 12.5385 36.1641 12.7613 36.1358 12.8448C35.9662 13.3182 35.74 13.9308 35.4572 14.6827C35.1745 15.4345 34.8422 16.2212 34.4605 17.0427C34.0788 17.8642 33.6476 18.6857 33.1669 19.5071C32.6863 20.3286 32.1914 21.0317 31.6825 21.6165C31.6825 22.0342 31.732 22.7373 31.8309 23.7259C31.9299 24.7144 32.05 25.7796 32.1914 26.9213C32.3328 28.063 32.4671 29.1837 32.5943 30.2837C32.7216 31.3837 32.7993 32.24 32.8276 32.8526C32.6862 32.9918 32.559 32.9639 32.4459 32.769C32.3328 32.5741 32.1631 32.2399 31.9369 31.7665C31.7673 31.0425 31.6329 30.3742 31.534 29.7616C31.4351 29.1489 31.3431 28.5294 31.2583 27.9028C31.1735 27.2763 31.0816 26.6149 30.9826 25.9187C30.8837 25.2226 30.7352 24.4289 30.5373 23.5379C30.0001 24.2062 29.3568 24.965 28.6075 25.8143C27.8582 26.6636 27.0806 27.4155 26.2748 28.0699C25.4689 28.7243 24.6772 29.1838 23.8996 29.4483C23.1221 29.7128 22.4506 29.5945 21.8851 29.0933C21.5458 28.6477 21.3973 28.1256 21.4397 27.5269C21.4822 26.9282 21.6518 26.3156 21.9487 25.689C22.2456 25.0625 22.6273 24.4429 23.0938 23.8302C23.5604 23.2176 24.034 22.6467 24.5147 22.1176C24.9953 21.5885 25.4478 21.1291 25.8719 20.7392C26.296 20.3494 26.607 20.0709 26.805 19.9038C27.2008 19.6532 27.533 19.4513 27.8016 19.2982C28.0702 19.145 28.3106 19.0197 28.5226 18.9222C28.7347 18.8248 28.9539 18.7552 29.18 18.7134C29.4062 18.6716 29.689 18.6647 30.0283 18.6925C29.9718 18.0521 29.9364 17.2863 29.9223 16.3952C29.9082 15.504 29.9082 14.606 29.9223 13.701C29.9364 12.796 29.9647 11.9536 30.0071 11.1739C30.0496 10.3943 30.1132 9.79552 30.198 9.37782C30.2545 8.76518 30.3889 8.12473 30.6009 7.45641C30.813 6.78809 31.0816 6.14066 31.4068 5.51411C31.7319 4.88756 32.0925 4.33064 32.4883 3.84331C32.8841 3.35598 33.3153 3.00792 33.7819 2.79907C34.2484 2.59022 34.7291 2.54147 35.2239 2.65287C35.7187 2.76427 36.2065 3.11234 36.6872 3.69712C37.083 4.1705 37.2809 4.76225 37.2809 5.47234V7.70703ZM31.6824 18.8596C32.1914 18.3027 32.6156 17.7109 32.9549 17.0843C33.2942 16.4578 33.6759 15.7129 34.1001 14.8496C34.4677 14.0978 34.7999 13.1371 35.0968 11.9675C35.3937 10.798 35.5986 9.64929 35.7118 8.5215C35.8249 7.39371 35.8249 6.41212 35.7118 5.57672C35.5986 4.74132 35.3159 4.29577 34.8635 4.24009C34.4676 4.18441 34.1 4.3306 33.7607 4.67867C33.4214 5.02674 33.1104 5.45835 32.8276 5.97349C32.5449 6.48864 32.3045 7.03863 32.1066 7.6234C31.9086 8.20818 31.7673 8.72333 31.6824 9.16889C31.5693 9.72581 31.4916 10.227 31.4492 10.6726C31.4068 11.1182 31.3785 11.5846 31.3643 12.0719C31.3502 12.5593 31.329 13.0884 31.3007 13.6592C31.2724 14.2301 31.2159 14.9332 31.1311 15.7686C31.1311 16.1863 31.1523 16.604 31.1947 17.0217C31.2371 17.4394 31.2936 17.7945 31.3643 18.0868C31.4351 18.3792 31.4987 18.602 31.5552 18.7552C31.6117 18.9083 31.6542 18.9431 31.6824 18.8596ZM25.5328 22.7442C24.7694 23.5239 24.2109 24.2409 23.8574 24.8953C23.504 25.5497 23.2142 26.1554 22.988 26.7123V27.1091L23.0516 27.6313L23.3061 28.0698L23.9211 28.1743C24.2039 28.0629 24.4371 27.9515 24.6209 27.8401C24.8047 27.7287 24.9743 27.6103 25.1299 27.485C25.2854 27.3597 25.455 27.2274 25.6388 27.0882C25.8226 26.949 26.0559 26.768 26.3386 26.5452C26.7345 26.1276 27.2222 25.6542 27.8019 25.1251C28.3815 24.596 28.8905 24.0391 29.3287 23.4543C29.767 22.8695 30.0568 22.2708 30.1982 21.6582C30.3395 21.0455 30.1558 20.4468 29.6468 19.8621C29.4489 19.8621 29.2439 19.8899 29.0318 19.9456C28.8197 20.0013 28.5582 20.1336 28.2472 20.3424C27.9362 20.5513 27.5615 20.8437 27.1233 21.2196C26.685 21.5955 26.1549 22.1037 25.5328 22.7442ZM48.9021 25.1251C48.9586 25.1808 48.9514 25.2784 48.8807 25.4176C48.81 25.5569 48.7111 25.71 48.5838 25.8771C48.4566 26.0442 48.3294 26.2043 48.2021 26.3575C48.0749 26.5106 47.983 26.615 47.9264 26.6707C47.2478 27.4226 46.6399 28.07 46.1027 28.613C45.5654 29.156 45.1272 29.6225 44.7879 30.0123C44.7879 30.0402 44.7808 30.2003 44.7667 30.4927C44.7526 30.7851 44.7455 30.9452 44.7455 30.973C44.6889 31.9198 44.6677 32.8736 44.6819 33.8343C44.696 34.795 44.6324 35.7627 44.491 36.7373C44.3214 37.8511 44.1446 38.7492 43.9608 39.4314C43.7771 40.1137 43.5862 40.6706 43.3883 41.1022C43.1903 41.5338 42.9853 41.8958 42.7733 42.1882C42.5612 42.4806 42.3279 42.8078 42.0735 43.1698C41.8473 43.4761 41.5928 43.7406 41.31 43.9634C41.0273 44.1861 40.6456 44.4507 40.1649 44.757C39.5146 45.1468 38.836 45.4392 38.1291 45.6341C37.4222 45.8291 36.7719 45.8639 36.1781 45.7386C35.5843 45.6132 35.0824 45.3 34.6724 44.7987C34.2624 44.2975 34.0291 43.5456 33.9726 42.5432C33.9161 41.4293 34.114 40.3294 34.5664 39.2433C35.0189 38.1573 35.5561 37.1688 36.1782 36.2777C36.8002 35.3866 37.4081 34.6347 38.0019 34.0221C38.5957 33.4095 39.0057 32.9918 39.2319 32.769C39.5995 32.3792 39.9317 32.045 40.2286 31.7665C40.5255 31.488 40.8295 31.2305 41.1405 30.9937C41.4515 30.757 41.7837 30.4994 42.1371 30.221C42.4906 29.9425 42.9076 29.6083 43.3883 29.2185C43.5014 28.5502 43.5721 27.847 43.6004 27.1091C43.6287 26.3712 43.6287 25.6123 43.6004 24.8326C43.0914 25.863 42.5471 26.6705 41.9675 27.2553C41.3878 27.8401 40.8647 28.2787 40.3982 28.571C39.9317 28.8634 39.5499 29.0444 39.2531 29.1141C38.9562 29.1837 38.836 29.2185 38.8925 29.2185C38.3553 29.302 37.9241 29.3229 37.5989 29.2811C37.2737 29.2394 37.0193 29.1558 36.8355 29.0305C36.6517 28.9052 36.5103 28.759 36.4114 28.5919C36.3124 28.4249 36.2347 28.2578 36.1782 28.0907C36.0368 27.3667 36.0439 26.6218 36.1994 25.856C36.3549 25.0902 36.5882 24.3593 36.8992 23.6631C37.2102 22.9669 37.5495 22.3264 37.9171 21.7417C38.2847 21.1569 38.624 20.6835 38.935 20.3215C38.9916 20.2658 39.1259 20.1196 39.338 19.8829C39.55 19.6462 39.8257 19.3817 40.165 19.0893C40.5043 18.7969 40.9214 18.4975 41.4162 18.1912C41.911 17.8849 42.4836 17.6065 43.1339 17.3558C43.7842 17.2166 44.4487 17.154 45.1273 17.1679C45.8059 17.1818 46.3573 17.3419 46.7814 17.6482C46.5552 17.7317 46.2089 17.8361 45.7423 17.9615C45.2758 18.0868 44.9718 18.1773 44.8304 18.233V18.3165C44.8304 18.4 44.8587 18.4418 44.9153 18.4418C44.4346 18.3304 43.6853 18.5253 42.6674 19.0266C41.6495 19.5278 40.5467 20.4885 39.3592 21.9087C38.8219 22.6606 38.4119 23.3359 38.1292 23.9345C37.8464 24.5332 37.6414 25.0484 37.5142 25.48C37.3869 25.9116 37.3233 26.2806 37.3233 26.5869C37.3233 26.8932 37.3374 27.1299 37.3657 27.2969C37.394 27.4083 37.493 27.5058 37.6626 27.5893C37.8323 27.6729 38.0443 27.6868 38.2988 27.6311C39.034 27.464 39.7196 27.0951 40.3558 26.5242C40.992 25.9533 41.5717 25.3059 42.0948 24.5819C42.6178 23.8579 43.0632 23.1478 43.4308 22.4516C43.7984 21.7555 44.067 21.1985 44.2366 20.7808C44.5194 20.1404 44.6678 19.5486 44.6819 19.0056C44.6961 18.4626 44.6749 18.1911 44.6183 18.1911H44.6819H44.788L44.8304 18.233L44.5335 18.2746C44.59 18.219 44.6254 18.205 44.6819 18.1911C44.7385 18.1772 44.8162 18.1355 44.8727 18.1076C44.8444 18.0797 44.8515 18.045 44.8939 18.0032C44.9363 17.9614 44.9858 17.9405 45.0424 17.9405C45.0424 17.8848 45.1131 17.8292 45.2544 17.7735L45.5089 17.6899L45.6362 17.6064C45.7493 17.5507 45.82 17.509 45.8483 17.4811C45.8765 17.4532 45.9119 17.4393 45.9543 17.4393C45.9967 17.4393 46.0744 17.4602 46.1876 17.502C46.3007 17.5438 46.4987 17.5646 46.7814 17.6482C46.5269 18.3165 46.3078 19.1728 46.124 20.1335C45.9402 21.0942 45.7776 22.0619 45.6363 23.0365C45.4949 24.0111 45.3748 24.937 45.2758 25.8142C45.1769 26.6914 45.085 27.3806 45.0001 27.8818C45.2263 27.659 45.5585 27.3945 45.9968 27.0882C46.435 26.7819 46.8662 26.4756 47.2904 26.1693C47.7993 25.8352 48.3366 25.4871 48.9021 25.1251ZM43.558 32.3515C43.6429 31.711 43.6287 31.3213 43.5156 31.182C43.459 31.0985 43.3883 31.0706 43.3035 31.0985C42.5401 31.7111 41.918 32.2263 41.4373 32.644C40.9567 33.0617 40.6315 33.3402 40.4618 33.4794C39.1046 34.7325 38.0937 35.8394 37.4293 36.8001C36.7649 37.7608 36.3195 38.6449 36.0933 39.4525C35.7823 40.3436 35.6056 41.1302 35.5631 41.8125C35.5207 42.4947 35.6975 43.156 36.0933 43.7965C36.8002 44.3256 37.5707 44.43 38.4048 44.1098C39.2389 43.7895 40.0095 43.2953 40.7163 42.627C41.5363 41.708 42.2008 40.42 42.7097 38.7632C43.2187 37.1064 43.5015 34.969 43.558 32.3515ZM68.6665 1.10739C67.9878 1.49722 67.0054 1.92867 65.7188 2.40204C64.4322 2.87542 63.0468 3.3488 61.5623 3.82218C60.0779 4.29556 58.5864 4.77591 57.0877 5.26324C55.5891 5.75057 54.2885 6.21701 53.1858 6.66257C53.2423 7.30303 53.2847 7.85302 53.313 8.31248C53.3413 8.77195 53.3766 9.27319 53.419 9.8162C53.4614 10.3592 53.5322 11.0275 53.6311 11.8212C53.73 12.6148 53.8785 13.6799 54.0764 15.0166C55.1792 14.5432 56.0698 14.1742 56.7484 13.9097C57.4271 13.6452 58.1339 13.4015 58.8691 13.1788C59.6042 12.956 60.4737 12.7054 61.4775 12.4269C62.4813 12.1484 63.8456 11.7586 65.5703 11.2573C65.7117 11.2852 65.8813 11.3757 66.0793 11.5289C66.2772 11.6821 66.4398 11.8561 66.567 12.0511C66.6943 12.246 66.7579 12.4409 66.7579 12.6359C66.7579 12.8308 66.6589 12.984 66.461 13.0954C65.2734 13.2346 64.1071 13.4504 62.9619 13.7428C61.8168 14.0352 60.7353 14.3694 59.7173 14.7453C58.6994 15.1212 57.7522 15.5041 56.8757 15.894C55.9991 16.2838 55.2216 16.6319 54.543 16.9382C54.5995 18.247 54.748 19.5139 54.9883 20.7392C55.2287 21.9646 55.5538 23.0715 55.9638 24.0599C56.3739 25.0484 56.8545 25.863 57.4059 26.5035C57.9573 27.1439 58.5722 27.5199 59.2508 27.6313C59.5619 27.6869 60.0001 27.7357 60.5656 27.7775C61.1311 27.8192 61.7956 27.7287 62.559 27.506C63.3224 27.2832 64.1848 26.8725 65.1462 26.2738C66.1076 25.6751 67.1679 24.7492 68.3272 23.4961C69.0906 22.8278 69.642 22.4518 69.9813 22.3683C70.3206 22.2848 70.363 22.4101 70.1085 22.7442C69.3451 23.5518 68.6453 24.3106 68.0091 25.0207C67.3729 25.7308 66.7155 26.3712 66.0369 26.9421C65.3583 27.513 64.6231 28.0072 63.8314 28.4249C63.0397 28.8426 62.1207 29.135 61.0746 29.3021C59.6325 29.6084 58.4308 29.5318 57.4695 29.0724C56.5082 28.6129 55.7235 27.861 55.1156 26.8168C54.5076 25.7725 54.0199 24.4708 53.6523 22.9113C53.2847 21.3518 52.9595 19.6255 52.6768 17.7318C52.1961 17.7875 51.8003 17.878 51.4893 18.0033C51.1782 18.1287 50.7682 18.3584 50.2593 18.6926C50.0331 18.6647 49.9483 18.5464 50.0048 18.3375C50.0613 18.1287 50.2098 17.878 50.4501 17.5856C50.6905 17.2933 50.9874 16.987 51.3408 16.6667C51.6942 16.3465 52.0406 16.075 52.3799 15.8522C52.2103 14.7105 52.0477 13.52 51.8922 12.2809C51.7366 11.0418 51.5882 9.85822 51.4468 8.73043C51.3055 7.60265 51.1994 6.58618 51.1287 5.68123C51.058 4.77629 51.0227 4.087 51.0227 3.61362L51.4044 3.42566L51.6801 3.32123L52.0406 3.25858L52.7192 3.19592C52.7758 3.33514 52.8111 3.53008 52.8252 3.7807C52.8393 4.03132 52.8464 4.25408 52.8464 4.44902C54.2885 4.087 55.5891 3.73893 56.7484 3.40477C57.9078 3.07061 59.0387 2.74343 60.1414 2.42318C61.2442 2.10293 62.3611 1.78268 63.4921 1.46243C64.623 1.14218 65.8672 0.814997 67.2244 0.480838C67.4506 0.425159 67.6697 0.418183 67.8818 0.459953C68.0938 0.501723 68.2706 0.571353 68.4119 0.668803C68.5533 0.766252 68.6523 0.856766 68.7088 0.940306C68.7653 1.02385 68.7513 1.07953 68.6665 1.10739ZM79.1849 17.3976C79.1566 17.5647 79.093 17.9127 78.9941 18.4418C78.8951 18.9709 78.7891 19.5905 78.676 20.3006C78.5629 21.0107 78.4639 21.7555 78.3791 22.5353C78.2943 23.315 78.2448 24.0529 78.2306 24.7491C78.2165 25.4452 78.2589 26.037 78.3579 26.5243C78.4568 27.0117 78.6194 27.311 78.8456 27.4224C79.4959 27.7287 80.1604 27.6243 80.839 27.1091C81.5176 26.594 82.3093 25.8073 83.2141 24.7491C83.2989 24.7491 83.306 24.8605 83.2353 25.0833C83.1646 25.3061 83.0515 25.5497 82.896 25.8142L82.4294 26.6079L82.0689 27.13C81.8427 27.4085 81.5176 27.7217 81.0934 28.0698C80.6693 28.4179 80.2169 28.6964 79.7362 28.9052C79.2555 29.1141 78.7961 29.2046 78.3578 29.1767C77.9196 29.1488 77.5591 28.8982 77.2763 28.4249C77.135 28.0907 77.0501 27.68 77.0218 27.1926C76.9935 26.7053 76.9935 26.211 77.0218 25.7098C77.0501 25.2086 77.0925 24.7491 77.1491 24.3314C77.2056 23.9137 77.248 23.6074 77.2763 23.4125C76.6825 24.4985 76.0039 25.5287 75.2405 26.5034C74.4771 27.4781 73.7278 28.2438 72.9926 28.8008C72.2575 29.3577 71.5789 29.6571 70.9568 29.6988C70.3347 29.7406 69.8541 29.3856 69.5148 28.6337C69.3168 27.9097 69.3168 27.0952 69.5148 26.1902C69.7127 25.2851 70.0096 24.4706 70.4054 23.7466C70.9992 22.7441 71.6213 21.8252 72.2716 20.9898C72.9219 20.1544 73.6146 19.4443 74.3498 18.8595C75.0849 18.2748 75.8554 17.8501 76.6613 17.5856C77.4671 17.321 78.3083 17.2584 79.1849 17.3976ZM71.2113 28.0071C71.4941 28.0628 71.9465 27.8539 72.5685 27.3805C73.1906 26.9071 73.8409 26.2458 74.5195 25.3965C75.1981 24.5472 75.8131 23.5586 76.3645 22.4308C76.9158 21.303 77.2764 20.1126 77.446 18.8595H76.9583L76.216 19.1101C75.1416 19.8063 74.2226 20.6208 73.4592 21.5537C72.6958 22.4865 72.102 23.3915 71.6779 24.2687C71.2537 25.1459 70.9992 25.9325 70.9144 26.6287C70.8296 27.3249 70.9286 27.7844 71.2113 28.0071ZM87.1585 16.5205C87.8654 16.6319 88.4522 16.785 88.9188 16.9799C89.3853 17.1749 89.7529 17.3907 90.0215 17.6274C90.2901 17.8641 90.5022 18.1078 90.6577 18.3584C90.8132 18.609 90.9617 18.8457 91.103 19.0685C91.0747 19.1799 90.9404 19.166 90.7001 19.0268C90.4597 18.8875 90.2264 18.7483 90.0003 18.6091C89.3782 18.2193 88.6289 17.9825 87.7524 17.899C86.8759 17.8155 86.0629 17.8642 85.3136 18.0452C84.5644 18.2262 83.9635 18.5395 83.511 18.985C83.0586 19.4306 82.9455 19.9736 83.1717 20.6141C83.3979 21.2545 83.8008 21.8114 84.3805 22.2848C84.9601 22.7582 85.6034 23.1829 86.3103 23.5588C87.0172 23.9347 87.7241 24.2758 88.4309 24.5821C89.1378 24.8884 89.7175 25.1947 90.1699 25.501C90.7354 25.1947 91.2161 24.9371 91.6119 24.7283C92.0077 24.5195 92.3612 24.3245 92.6722 24.1435C92.9832 23.9625 93.3013 23.7955 93.6265 23.6423C93.9516 23.4891 94.3263 23.3151 94.7504 23.1201C94.8069 23.0923 94.8564 23.0783 94.8989 23.0783C94.9413 23.0783 94.9413 23.1131 94.8989 23.1828C94.8564 23.2524 94.7433 23.3638 94.5596 23.517C94.3758 23.6701 94.086 23.886 93.6901 24.1644C93.4922 24.3037 93.1246 24.5404 92.5874 24.8745C92.0501 25.2087 91.4705 25.5707 90.8484 25.9606C91.1877 26.2669 91.4563 26.5871 91.6542 26.9213C91.8239 27.2276 91.944 27.5547 92.0147 27.9028C92.0854 28.2509 92.0218 28.6059 91.8239 28.9679C91.2584 29.859 90.6222 30.5552 89.9153 31.0564C89.2084 31.5577 88.5581 31.9058 87.9643 32.1007C87.5685 32.2399 87.1302 32.2538 86.6496 32.1424C86.1689 32.031 85.7872 31.8083 85.5044 31.4741C85.1934 31.0285 85.1156 30.576 85.2712 30.1166C85.4267 29.6571 85.6883 29.2115 86.0559 28.7799C86.4235 28.3483 86.8476 27.9376 87.3282 27.5478C87.8089 27.1579 88.233 26.8099 88.6006 26.5036C88.3462 26.2251 87.8513 25.884 87.1162 25.4802C86.381 25.0764 85.6247 24.6308 84.8471 24.1435C84.0695 23.6562 83.3697 23.134 82.7477 22.5771C82.1256 22.0202 81.7863 21.4633 81.7297 20.9064C81.6166 20.2937 81.6944 19.702 81.963 19.1311C82.2316 18.5602 82.6274 18.059 83.1505 17.6274C83.6736 17.1958 84.2815 16.8755 84.9742 16.6667C85.6669 16.4578 86.395 16.4091 87.1585 16.5205ZM86.7767 30.8475C87.0878 30.9867 87.4412 30.9867 87.8371 30.8475C88.2329 30.7082 88.6075 30.5064 88.961 30.2418C89.3144 29.9773 89.6254 29.6849 89.894 29.3647C90.1626 29.0444 90.3393 28.759 90.4242 28.5084C90.509 28.2856 90.4313 28.042 90.1909 27.7775C89.9505 27.5129 89.7032 27.2971 89.4487 27.13C89.1377 27.3528 88.7842 27.6382 88.3884 27.9863C87.9926 28.3343 87.6462 28.6894 87.3493 29.0514C87.0524 29.4134 86.8332 29.7615 86.6919 30.0956C86.5505 30.4298 86.5788 30.6804 86.7767 30.8475ZM97.592 17.8571C97.6769 17.8293 97.9172 17.7525 98.313 17.6272C98.7089 17.5019 99.0341 17.481 99.2886 17.5646C100.109 17.5367 100.738 17.7455 101.176 18.1911C101.614 18.6367 101.649 19.4999 101.282 20.7808C100.745 22.201 100.031 23.3846 99.14 24.3313C98.2493 25.278 97.1961 26.1831 95.9803 27.0463C96.263 27.7703 96.6872 28.1741 97.2526 28.2576C97.8181 28.3412 98.4119 28.2507 99.034 27.9861C99.6561 27.7216 100.264 27.3666 100.858 26.921C101.452 26.4755 101.932 26.0856 102.3 25.7515C102.894 25.2502 103.367 24.8255 103.721 24.4775C104.074 24.1294 104.449 23.7047 104.844 23.2035C104.929 23.1478 104.979 23.1548 104.993 23.2244C105.007 23.294 105 23.3985 104.972 23.5377C104.943 23.6769 104.901 23.8718 104.844 24.1225C104.76 24.3174 104.675 24.4915 104.59 24.6446C104.505 24.7978 104.385 24.9649 104.229 25.1459C104.074 25.3269 103.869 25.5427 103.614 25.7933C103.36 26.0439 103.049 26.3781 102.681 26.7958C102.257 27.1856 101.847 27.5685 101.451 27.9445C101.056 28.3204 100.639 28.6476 100.2 28.9261C99.762 29.2045 99.2814 29.3995 98.7583 29.5109C98.2352 29.6223 97.6344 29.6223 96.9558 29.5109C96.3903 29.3159 95.9378 29.1071 95.5985 28.8843C95.2592 28.6616 94.9977 28.4318 94.8139 28.1951C94.6301 27.9584 94.4958 27.7426 94.411 27.5476C94.3262 27.3527 94.2696 27.1856 94.2413 27.0464C94.1 26.4895 94.0434 25.7376 94.0717 24.7908C94.1 23.844 94.3828 22.6188 94.92 21.1151C95.2876 20.3354 95.6835 19.674 96.1076 19.131C96.5317 18.588 97.0265 18.1634 97.592 17.8571ZM95.7259 25.2504C96.0935 25.0554 96.5244 24.7839 97.0192 24.4358C97.5141 24.0878 97.9806 23.684 98.4189 23.2245C98.8571 22.765 99.2388 22.2568 99.564 21.6999C99.8892 21.143 100.066 20.5582 100.094 19.9456C100.179 19.5279 100.165 19.2355 100.052 19.0684C99.9953 18.9849 99.9387 18.9431 99.8822 18.9431C99.4015 18.7203 98.9209 18.79 98.4402 19.152C97.9595 19.514 97.5213 20.0291 97.1254 20.6975C96.7296 21.3658 96.3974 22.1107 96.1288 22.9322C95.8602 23.7536 95.7259 24.5264 95.7259 25.2504Z" fill="#F77444"/>
</svg>
