<svg width="40" height="40" viewBox="0 0 40 40" fill="none" xmlns="http://www.w3.org/2000/svg">
<path d="M36.6691 4.00676H33.6622C32.6922 1.25216 29.8796 -0.403408 27.0002 0.0850851C24.1211 0.573578 22.0122 3.06486 22.0051 5.98514V6.0065C21.9945 6.46692 22.0198 6.9722 22.0466 7.50829C22.1333 9.25509 22.2206 11.2173 21.0953 12.0167C19.2362 12.0695 17.468 12.8329 16.1542 14.1495L16.1377 14.1663L8.19125 22.6861C8.12931 22.6827 8.06981 22.6699 8.00787 22.6699H3.34202C1.50246 22.672 0.0116573 24.1628 0.00952148 26.0027C0.00952148 26.3707 0.307927 26.6691 0.675898 26.6691H2.74216C3.061 28.2197 4.42518 29.3333 6.00813 29.3352H10.674C11.3178 29.3309 11.9466 29.1402 12.4843 28.786C14.4968 29.4115 16.5719 29.8124 18.6723 29.9817V39.3333C18.6723 39.7015 18.9708 39.9999 19.339 39.9999H28.6704C28.9023 40.0012 29.1177 39.8822 29.2401 39.6854C29.3624 39.4889 29.374 39.2426 29.2706 39.0355C29.2038 38.9116 27.6996 36.0008 23.3382 36.0008V29.8478C25.3578 29.7511 27.3294 29.1994 29.1058 28.2343C30.3162 27.509 32.4386 25.9566 33.0785 23.7018C33.5715 21.7893 33.4449 19.7694 32.7172 17.9335C32.5631 17.5381 32.388 17.1524 32.2126 16.7665C31.8522 16.0504 31.5764 15.2952 31.3909 14.5156C31.1462 13.0025 31.4772 11.4528 32.3184 10.1717C32.5924 9.88485 32.838 9.57241 33.0516 9.23861C33.0791 9.20779 33.109 9.17728 33.1398 9.14647C33.2466 9.03693 33.3119 8.89322 33.3238 8.74066C33.4458 8.50297 33.5526 8.25766 33.6429 8.00594H39.3352C39.7032 8.00594 40.0019 7.70753 40.0019 7.33956C40.0025 6.45533 39.6519 5.6071 39.0267 4.98192C38.4016 4.35673 37.5533 4.00585 36.6691 4.00676ZM17.104 15.0874C18.8283 13.3726 21.4163 12.8662 23.6595 13.805C22.9254 15.6595 21.8108 17.3398 20.3874 18.7372C17.2273 21.8973 13.1329 23.3451 10.252 22.4359L17.104 15.0874ZM13.3401 25.336H7.54135L9.26893 23.4845C10.166 23.8626 11.1308 24.0539 12.1044 24.0469C15.0866 24.0469 18.5164 22.488 21.3293 19.6752C22.8363 18.1941 24.0287 16.4244 24.8354 14.4714C25.1003 14.6599 25.3495 14.8696 25.5805 15.0981C27.2944 16.8141 27.8063 19.3929 26.8782 21.6334C25.9497 23.8739 23.7638 25.3351 21.3388 25.336H13.3401ZM3.34202 24.0029H6.96193L5.71827 25.336H1.45639C1.73984 24.5378 2.49501 24.0042 3.34202 24.0029ZM6.00813 28.0021C5.16113 28.0012 4.40596 27.4676 4.12251 26.6691H7.16789C8.11741 27.1905 9.1063 27.6363 10.1254 28.0021H6.00813ZM22.6718 38.6669H20.0057V37.3338C20.8243 37.3232 21.6381 37.4647 22.4052 37.7509C22.411 37.7509 22.4171 37.7549 22.4232 37.757C22.9779 37.9685 23.4908 38.2763 23.9381 38.6669H22.6718ZM25.7077 38.6669C25.3788 38.1982 24.981 37.782 24.5282 37.4318C25.5415 37.5737 26.4928 38.0023 27.2709 38.6669H25.7077ZM22.0051 36.2348C21.3504 36.0767 20.6791 35.998 20.0057 36.0008V29.9945C20.6962 29.9884 21.3653 29.9726 22.0051 29.9411V36.2348ZM31.4748 18.4187C32.0997 19.9845 32.2119 21.7082 31.7955 23.3418C31.2841 25.1514 29.4625 26.4671 28.4212 27.0904C26.2365 28.4021 23.2104 28.6688 19.339 28.6688C17.0769 28.569 14.8382 28.1654 12.6835 27.4691C12.6408 27.4508 12.5959 27.4373 12.5505 27.4285C11.7803 27.1929 11.0386 26.9373 10.3509 26.6724H21.3388C25.1131 26.6776 28.2747 23.8165 28.6451 20.0602C29.0155 16.3039 26.4739 12.8802 22.771 12.1479C23.5463 10.838 23.4548 9.00001 23.3782 7.44604C23.3522 6.92887 23.3275 6.44099 23.3382 6.02633C23.3382 6.02298 23.3382 6.02054 23.3382 6.01779V6.0065C23.3339 3.65374 25.0823 1.66559 27.4164 1.36932C29.7503 1.07306 31.9401 2.56081 32.5238 4.84004C32.7172 5.60436 32.7172 6.40468 32.5238 7.169C32.409 7.60349 32.2339 8.01997 32.0032 8.40594C31.8852 8.53531 31.7747 8.67262 31.6667 8.80595C31.6487 8.82853 31.6286 8.84989 31.6106 8.87247C31.4867 9.03113 31.3704 9.19284 31.2615 9.35791C31.2575 9.3631 31.256 9.36981 31.252 9.375C31.2481 9.38049 31.238 9.39392 31.2322 9.40307C31.2261 9.41253 31.2221 9.411 31.2182 9.4171C30.1799 10.9958 29.7753 12.9083 30.085 14.7722C30.2894 15.654 30.5973 16.5086 31.0021 17.3184C31.1642 17.6827 31.3302 18.0461 31.4748 18.4187ZM33.9615 6.67288C33.9877 6.45167 34.0015 6.22924 34.003 6.0065C34.0015 5.78376 33.9877 5.56103 33.9615 5.33982H36.6691C37.1979 5.34012 37.7053 5.54882 38.0809 5.92107C38.292 6.13373 38.4534 6.39064 38.5541 6.67288H33.9615Z" fill="#72CDEC"/>
</svg>
